<svg width="16" height="16" viewBox="0 0 16 16" fill="none" xmlns="http://www.w3.org/2000/svg">
<path d="M13.4619 6.20513C10.7158 3.71458 6.4476 3.41657 3.40347 5.54525C-0.0344772 7.83357 -1.13079 12.7508 1.33857 15.9119L1.47694 15.848C1.25342 14.6347 1.25343 13.4639 1.51953 12.3889C2.15816 9.34493 4.9149 7.01403 8.0016 7.03532C12.5784 7.08853 15.4416 11.463 14.5262 15.848L14.6646 15.9119C16.2506 13.9322 16.4634 10.7711 15.0904 8.30188C14.6753 7.51427 14.0898 6.82245 13.4512 6.21578L13.4619 6.20513Z" fill="#DFD5C8"/>
<path d="M12.291 0.117076L12.1845 0C11.4288 0.298015 10.737 0.542812 10.0451 0.702463C8.67209 1.01112 7.32032 1.01112 5.94727 0.702463C5.25543 0.542812 4.57421 0.298015 3.80786 0L3.70142 0.117076C5.38314 3.26752 10.5986 3.26752 12.2803 0.117076H12.291Z" fill="#DFD5C8"/>
</svg>
