<svg width="32" height="32" viewBox="0 0 32 32" fill="none" xmlns="http://www.w3.org/2000/svg">
  <circle cx="16" cy="16" r="15" stroke="#DFD5C8" stroke-width="2" fill="none" />
  <path d="M16 8C16.5523 8 17 8.44772 17 9.00003L16.6667 18.6667C16.6667 19.219 16.219 19.6667 15.6667 19.6667C15.1144 19.6667 14.6667 19.219 14.6667 18.6667L14.3333 9.00003C14.3333 8.44772 14.781 8 15.3333 8H16Z" fill="#DFD5C8" />
  <path d="M16 24C16.7364 24 17.3333 23.4031 17.3333 22.6667C17.3333 21.9303 16.7364 21.3333 16 21.3333C15.2636 21.3333 14.6667 21.9303 14.6667 22.6667C14.6667 23.4031 15.2636 24 16 24Z" fill="#DFD5C8" />
</svg>
