<svg width="162" height="28" viewBox="0 0 162 28" fill="none" xmlns="http://www.w3.org/2000/svg">
<path d="M39.2637 16.0071C36.4208 17.7358 32.246 18.0816 29.5695 15.8534C25.8557 12.7545 25.8429 4.36675 29.5695 1.19095L31.0422 0.294556C21.0406 0.87081 19.5167 16.7754 29.3262 19.0548C33.4626 20.0153 38.2521 18.8243 40.5828 15.0851C40.4803 14.9826 39.4559 15.879 39.251 16.0071H39.2637Z" fill="#DFD5C8"/>
<path d="M0.128069 18.0944L0 19.0676H3.9315L16.5584 1.319L16.6224 0.422607H12.6909L0.128069 18.0944Z" fill="#DFD5C8"/>
<path d="M84.5079 8.84873C81.857 7.63219 76.2351 6.94069 76.7985 2.94533C76.9138 2.12577 77.5285 1.30621 78.22 0.883619L79.8848 0.166504C72.9951 0.204921 71.3944 7.01752 77.6053 10.2189C79.7696 11.333 84.6615 12.0501 85.5836 14.4704C86.5184 16.9163 84.0725 18.8884 81.8186 19.0676C81.793 19.2853 82.2668 19.2085 82.4076 19.1957C89.6303 18.7475 91.3335 11.9605 84.5207 8.83593L84.5079 8.84873Z" fill="#DFD5C8"/>
<path d="M52.4414 3.38077C54.6697 2.34351 58.2554 0.806835 60.4965 2.48437C61.0471 2.89416 61.7515 4.05947 61.8539 4.73817V19.0805H65.7214V4.61011C65.7214 4.50767 65.4909 3.79055 65.4269 3.61127C63.5828 -1.88235 55.4893 7.99447e-05 52.4414 3.38077Z" fill="#DFD5C8"/>
<path d="M140.944 0.422607L149.973 18.8627C150.126 19.1957 151.548 19.1189 151.65 18.9908C151.932 17.9663 152.649 17.0828 152.905 16.0839L145.132 0.422607H140.944Z" fill="#DFD5C8"/>
<path d="M51.929 0.422607H48.0615V19.0676H51.929V0.422607Z" fill="#DFD5C8"/>
<path d="M125.872 0.422607H122.004V19.0676H125.872V0.422607Z" fill="#DFD5C8"/>
<path d="M34.7819 0.883614C36.7412 2.31785 37.1766 5.6217 37.1126 7.8883L27.3159 9.16887H40.1349C40.7368 7.74744 40.4806 5.81379 39.9043 4.37956C39.0207 2.15137 36.357 0.320167 33.9495 0.294556C33.3604 0.294556 34.6794 0.819586 34.7819 0.883614Z" fill="#DFD5C8"/>
<path d="M133.607 0.217764C131.353 -0.35849 128.92 0.742795 127.409 2.40753C127.101 2.75328 126.294 3.82896 126.128 4.21312C126.102 4.27715 126.089 4.41802 126.192 4.40521C127.344 2.83012 130.853 0.473876 132.569 2.27947C133.581 3.34234 133.03 4.85341 132.697 6.06994C137.269 7.67065 137.564 1.22941 133.607 0.217764Z" fill="#DFD5C8"/>
<path d="M144.927 25.5729C143.967 24.8174 145.094 23.3063 145.004 23.1783C142.75 22.1538 140.881 23.6265 141.572 26.0852C141.649 26.3797 142.033 27.1864 142.315 27.2761C142.584 27.3529 146.106 27.3529 146.387 27.2761C147.322 27.0072 149.089 24.1899 149.307 23.1911C148.526 24.1131 146.234 26.6102 144.915 25.5857L144.927 25.5729Z" fill="#DFD5C8"/>
<path d="M158.86 0.422607L153.123 15.8534L161.05 0.422607H158.86Z" fill="#DFD5C8"/>
<path d="M16.6222 19.0677V16.8779L4.25146 19.0677H16.6222Z" fill="#DFD5C8"/>
<path d="M0.256348 0.422607V2.61237L12.3709 0.422607H0.256348Z" fill="#DFD5C8"/>
<path d="M74.4933 14.8675L73.5713 12.8954V14.765C73.5713 15.623 74.0835 17.2621 74.6598 17.9152C75.1977 18.5171 76.7088 19.1958 77.49 19.1958H79.3597L77.4644 18.1969C76.2222 17.3389 75.2873 16.1352 74.4933 14.8675Z" fill="#DFD5C8"/>
<path d="M86.5055 4.0338C86.9153 4.68689 87.133 5.48084 87.6068 6.08271C87.5556 4.9302 87.5556 3.55999 87.1586 2.48432C86.3903 0.422611 84.1236 0.217722 82.2026 0.294556L83.9187 1.21656C84.9432 1.97209 85.8396 2.94532 86.5055 4.0338Z" fill="#DFD5C8"/>
<path d="M111.401 7.46574C108.097 4.46922 102.962 4.11066 99.299 6.67179C95.1626 9.42501 93.8436 15.3412 96.8146 19.1445L96.9811 19.0677C96.7122 17.6078 96.7122 16.1992 97.0323 14.9058C97.8007 11.2434 101.117 8.43897 104.831 8.46458C110.338 8.52861 113.783 13.7917 112.681 19.0677L112.848 19.1445C114.756 16.7626 115.012 12.9594 113.36 9.98845C112.861 9.04083 112.156 8.20847 111.388 7.47854L111.401 7.46574Z" fill="#DFD5C8"/>
<path d="M109.992 0.14086L109.864 0C108.955 0.358558 108.123 0.653088 107.29 0.845172C105.638 1.21654 104.012 1.21654 102.36 0.845172C101.527 0.653088 100.708 0.358558 99.7858 0L99.6577 0.14086C101.681 3.93133 107.956 3.93133 109.979 0.14086H109.992Z" fill="#DFD5C8"/>
</svg>
