<svg width="55" height="55" viewBox="0 0 55 55" fill="none" xmlns="http://www.w3.org/2000/svg">
<path d="M3.896 18.1501C3.896 11.0918 7.92931 8.06689 13.9793 8.06689H34.1231C39.2564 8.06689 42.946 10.244 43.9314 15.2169C44.1147 16.1106 44.2064 17.0731 44.2064 18.1501V29.9523C44.2064 37.0106 40.1731 40.0355 34.1231 40.0355H13.9793C12.9481 40.0355 11.9627 39.944 11.046 39.7377C10.4731 39.6461 9.92302 39.4857 9.41885 39.3023C5.98135 38.019 3.896 35.0398 3.896 29.9523V27.5002" stroke="#DFD5C8" stroke-width="1.5" stroke-miterlimit="10" stroke-linecap="round" stroke-linejoin="round"/>
<path d="M51.1043 34.398V36.8272C51.1043 43.8855 47.0709 46.9104 41.0209 46.9104H20.8772C19.1813 46.9104 17.646 46.6814 16.3168 46.1772C13.5897 45.1689 11.7334 43.0835 11.0688 39.7377C11.9855 39.9439 12.9709 40.0354 14.0022 40.0354H34.1459C40.1959 40.0354 44.2293 37.0105 44.2293 29.9522V18.1501C44.2293 17.073 44.1376 16.1105 43.9543 15.2168C48.3314 16.1105 51.1043 19.1813 51.1043 25.0251" stroke="#DFD5C8" stroke-width="1.5" stroke-miterlimit="10" stroke-linecap="round" stroke-linejoin="round"/>
<path d="M30.1128 24.0627C30.1128 20.7169 27.4086 18.0127 24.0627 18.0127C20.7169 18.0127 18.0127 20.7169 18.0127 24.0627C18.0127 27.4086 20.7169 30.1128 24.0627 30.1128" stroke="#DFD5C8" stroke-width="1.5" stroke-miterlimit="10" stroke-linecap="round" stroke-linejoin="round"/>
<path d="M10.9541 19.021V29.1044" stroke="#DFD5C8" stroke-width="1.5" stroke-miterlimit="10" stroke-linecap="round" stroke-linejoin="round"/>
<path d="M37.1709 19.021V29.1044" stroke="#DFD5C8" stroke-width="1.5" stroke-miterlimit="10" stroke-linecap="round" stroke-linejoin="round"/>
</svg>
