<svg width="50" height="25" viewBox="0 0 50 25" fill="none" xmlns="http://www.w3.org/2000/svg">
<path d="M1.43213 12.2519C1.43213 12.2519 13.2884 1 24.6801 1C36.0717 1 47.928 12.2519 47.928 12.2519C47.928 12.2519 26.7273 37.5996 1.43213 12.2519Z" stroke="#41283B" stroke-width="2" stroke-miterlimit="10"/>
<path d="M25.2453 19.5668C29.206 19.5668 32.4169 16.3919 32.4169 12.4754C32.4169 8.55893 29.206 5.384 25.2453 5.384C21.2845 5.384 18.0737 8.55893 18.0737 12.4754C18.0737 16.3919 21.2845 19.5668 25.2453 19.5668Z" stroke="#41283B" stroke-width="2" stroke-miterlimit="10"/>
<path d="M28.4102 15.9156C30.3316 15.9156 31.8892 14.3754 31.8892 12.4754C31.8892 10.5755 30.3316 9.03528 28.4102 9.03528C26.4888 9.03528 24.9312 10.5755 24.9312 12.4754C24.9312 14.3754 26.4888 15.9156 28.4102 15.9156Z" stroke="#41283B" stroke-width="2" stroke-miterlimit="10"/>
</svg>
