<svg width="49" height="49" viewBox="0 0 49 49" fill="none" xmlns="http://www.w3.org/2000/svg">
<path d="M18.7017 22.1928C18.4976 22.1724 18.2526 22.1724 18.028 22.1928C13.1688 22.0295 9.31006 18.0483 9.31006 13.1483C9.31006 8.14617 13.3526 4.08325 18.3751 4.08325C23.3771 4.08325 27.4401 8.14617 27.4401 13.1483C27.4196 18.0483 23.5609 22.0295 18.7017 22.1928Z" stroke="#DFD5C8" stroke-width="1.5" stroke-linecap="round" stroke-linejoin="round"/>
<path opacity="0.4" d="M33.5037 8.16675C37.4645 8.16675 40.6495 11.3722 40.6495 15.3126C40.6495 19.1713 37.587 22.3155 33.7691 22.4584C33.6058 22.438 33.422 22.438 33.2383 22.4584" stroke="#DFD5C8" stroke-width="1.5" stroke-linecap="round" stroke-linejoin="round"/>
<path d="M8.49322 29.7267C3.55239 33.0342 3.55239 38.4242 8.49322 41.7113C14.1078 45.468 23.3157 45.468 28.9303 41.7113C33.8711 38.4038 33.8711 33.0138 28.9303 29.7267C23.3361 25.9905 14.1282 25.9905 8.49322 29.7267Z" stroke="#DFD5C8" stroke-width="1.5" stroke-linecap="round" stroke-linejoin="round"/>
<path opacity="0.4" d="M37.4443 40.8332C38.9143 40.527 40.3027 39.9349 41.446 39.057C44.631 36.6682 44.631 32.7278 41.446 30.3391C40.3231 29.4816 38.9552 28.9099 37.5056 28.5833" stroke="#DFD5C8" stroke-width="1.5" stroke-linecap="round" stroke-linejoin="round"/>
</svg>
