<svg width="49" height="49" viewBox="0 0 49 49" fill="none" xmlns="http://www.w3.org/2000/svg">
<path d="M18.3752 44.9166H30.6252C40.8335 44.9166 44.9168 40.8333 44.9168 30.6249V18.3749C44.9168 8.16659 40.8335 4.08325 30.6252 4.08325H18.3752C8.16683 4.08325 4.0835 8.16659 4.0835 18.3749V30.6249C4.0835 40.8333 8.16683 44.9166 18.3752 44.9166Z" stroke="#DFD5C8" stroke-width="1.5" stroke-linecap="round" stroke-linejoin="round"/>
<path opacity="0.4" d="M18.5791 24.5V21.4784C18.5791 17.5788 21.3354 16.0067 24.7041 17.9463L27.3174 19.4571L29.9308 20.968C33.2995 22.9075 33.2995 26.0925 29.9308 28.0321L27.3174 29.543L24.7041 31.0538C21.3354 32.9934 18.5791 31.4009 18.5791 27.5217V24.5Z" stroke="#DFD5C8" stroke-width="1.5" stroke-miterlimit="10" stroke-linecap="round" stroke-linejoin="round"/>
</svg>
