<svg width="49" height="49" viewBox="0 0 49 49" fill="none" xmlns="http://www.w3.org/2000/svg">
<path d="M25.5822 41.6908H12.6789C6.22725 41.6908 4.0835 37.4032 4.0835 33.0953V15.9045C4.0835 9.45283 6.22725 7.30908 12.6789 7.30908H25.5822C32.0339 7.30908 34.1777 9.45283 34.1777 15.9045V33.0953C34.1777 39.547 32.0135 41.6908 25.5822 41.6908Z" stroke="#DFD5C8" stroke-width="1.5" stroke-linecap="round" stroke-linejoin="round"/>
<path opacity="0.4" d="M39.8536 34.9125L34.1777 30.9313V18.0484L39.8536 14.0671C42.6302 12.1275 44.9169 13.3117 44.9169 16.7213V32.2788C44.9169 35.6884 42.6302 36.8725 39.8536 34.9125Z" stroke="#DFD5C8" stroke-width="1.5" stroke-linecap="round" stroke-linejoin="round"/>
<path opacity="0.4" d="M23.479 22.4583C25.1704 22.4583 26.5415 21.0871 26.5415 19.3958C26.5415 17.7044 25.1704 16.3333 23.479 16.3333C21.7876 16.3333 20.4165 17.7044 20.4165 19.3958C20.4165 21.0871 21.7876 22.4583 23.479 22.4583Z" stroke="#DFD5C8" stroke-width="1.5" stroke-linecap="round" stroke-linejoin="round"/>
</svg>
